<svg width="138" height="36" viewBox="0 0 138 36" fill="none" xmlns="http://www.w3.org/2000/svg">
<path d="M0 8.61897H3.06927V35.8005H8.69219V8.61897H11.7615V4.37109H0V8.61897Z" fill="white"/>
<path d="M13.3329 35.8005H23.1055V31.5526H18.9067V21.9274H22.7126V17.6795H18.9067V8.61897H23.1055V4.37109H13.3329V35.8005Z" fill="white"/>
<path d="M27.4761 4.37109L24.2841 35.8005H29.6614L30.2507 27.894H33.0008L33.6392 35.8005H38.992L35.9228 4.37109H27.4761ZM30.5699 23.4252L31.6258 9.33104L32.6816 23.4252H30.5699Z" fill="white"/>
<path d="M49.1575 19.6193L46.6039 4.37109H40.1707V35.8005H45.3025V17.3357L47.9789 35.8005H50.4098L53.037 17.3357V35.8005H58.1934V4.37109H51.7602L49.1575 19.6193Z" fill="white"/>
<path d="M90.2121 4.37109H81.1761V35.8005H86.75V24.1372H89.3036C93.0358 24.1372 94.1653 22.7622 94.1653 19.4228V9.4047C94.1653 6.55642 93.0358 4.37109 90.2121 4.37109ZM88.5424 19.0545C88.5424 19.6684 88.0759 20.0367 87.6339 20.0367H86.7254V8.37343H87.6585C88.1004 8.37343 88.5179 8.71719 88.5179 9.4047V19.0545H88.5424Z" fill="white"/>
<path d="M72.1648 12.6209C74.4729 12.3016 76.8056 13.6767 77.5176 16.0584L77.8859 16.2794L78.3525 15.3218L79.3592 14.8062L80.2432 12.3999L79.1137 11.7369L78.4261 10.632C78.4261 10.632 78.9909 9.35514 79.1382 9.03594L74.3256 1.47325L75.185 5.52469L71.6737 0L72.4595 3.78134C70.1023 3.04472 67.033 4.32154 65.8053 6.38409L65.9035 6.53142C66.2964 6.40865 66.7138 6.33498 67.1312 6.33498C64.6758 8.49575 64.3075 13.9713 68.2607 17.6545C71.1335 20.5027 73.7854 22.0742 73.7854 25.6837V30.791C73.7854 31.4539 73.4908 31.7731 72.8769 31.7731C72.3122 31.7731 72.0175 31.4539 72.0175 30.791V24.5542H66.6647V30.7664C66.6647 33.5656 67.5977 35.8 70.3969 35.8H75.5533C78.3034 35.8 79.2119 33.5165 79.2119 30.7664V25.6837C79.2119 22.3443 78.1561 20.6992 76.7319 18.563C75.8725 17.2616 75.4305 16.7214 74.3501 15.2727L73.8836 15.5674C73.4662 15.0026 72.9997 14.5115 72.4595 14.0695L72.1403 14.1678C70.0041 12.7191 70.3724 9.72346 71.9193 9.67435C72.1157 10.3619 71.9684 10.8038 71.2318 11.1722L71.4527 11.5159C71.8947 11.5405 72.3858 11.5896 72.8523 11.7123L71.9438 12.2771L72.1648 12.6209Z" fill="white"/>
<path d="M101.703 4.37109H96.1296V35.8005H101.703V4.37109Z" fill="white"/>
<path d="M109.266 23.3752H110.175C110.617 23.3752 111.083 23.719 111.083 24.3083V35.7751H116.706V26.1498C116.706 23.6207 116.117 21.681 113.612 21.239C116.166 20.8216 116.706 18.9309 116.706 16.3282V9.37931C116.706 5.99083 115.405 4.3457 111.943 4.3457H103.692V35.7751H109.266V23.3752ZM109.266 8.3726H110.199C110.445 8.3726 110.641 8.47081 110.813 8.64269C110.985 8.81457 111.059 9.08466 111.059 9.37931V18.2925C111.059 18.8818 110.617 19.2255 110.15 19.2255H109.242V8.3726H109.266Z" fill="white"/>
<path d="M124.22 4.37109H118.646V35.8005H124.22V4.37109Z" fill="white"/>
<path d="M125.791 4.37109V8.61897H128.86V35.8005H134.483V8.61897H137.553V4.37109H125.791Z" fill="white"/>
</svg>
